<svg width="16" height="16" viewBox="0 0 16 16" fill="none" xmlns="http://www.w3.org/2000/svg">
<g clip-path="url(#clip0_14_229)">
<path fill-rule="evenodd" clip-rule="evenodd" d="M7.33332 0.66642H8.66666V2.66642H7.33332V0.66642ZM7.33332 13.3331H8.66666V15.3331H7.33332V13.3331ZM2.34332 3.28575L3.28599 2.34309L4.69999 3.75709L3.75732 4.69975L2.34332 3.28642V3.28575ZM11.3 12.2424L12.2427 11.2998L13.6567 12.7138L12.714 13.6564L11.3 12.2424ZM12.714 2.34242L13.6567 3.28575L12.2427 4.69975L11.3 3.75709L12.714 2.34309V2.34242ZM3.75732 11.2998L4.69999 12.2424L3.28599 13.6564L2.34332 12.7138L3.75732 11.2998ZM15.3333 7.33309V8.66642H13.3333V7.33309H15.3333ZM7.99999 3.99975C10.2091 3.99975 12 5.79061 12 7.99975C12 10.2089 10.2091 11.9998 7.99999 11.9998C5.79085 11.9998 3.99999 10.2089 3.99999 7.99975C3.99999 5.79061 5.79085 3.99975 7.99999 3.99975ZM7.99999 5.33309C6.52723 5.33309 5.33332 6.52699 5.33332 7.99975C5.33332 9.4292 6.45803 10.5959 7.87079 10.6633L7.99999 10.6664V5.33309ZM2.66666 7.33309V8.66642H0.666656V7.33309H2.66666Z" fill="#000091"/>
</g>
<defs>
<clipPath id="clip0_14_229">
<rect width="16" height="16" fill="white" transform="translate(0 -0.000244141)"/>
</clipPath>
</defs>
</svg>
