<svg width="40" height="41" viewBox="0 0 40 41" fill="none" xmlns="http://www.w3.org/2000/svg">
<path d="M20 10.6777C22.717 10.6777 23.056 10.6877 24.122 10.7377C25.187 10.7877 25.912 10.9547 26.55 11.2027C27.21 11.4567 27.766 11.8007 28.322 12.3557C28.8305 12.8556 29.224 13.4603 29.475 14.1277C29.722 14.7647 29.89 15.4907 29.94 16.5557C29.987 17.6217 30 17.9607 30 20.6777C30 23.3947 29.99 23.7337 29.94 24.7997C29.89 25.8647 29.722 26.5897 29.475 27.2277C29.2247 27.8954 28.8311 28.5003 28.322 28.9997C27.822 29.508 27.2173 29.9014 26.55 30.1527C25.913 30.3997 25.187 30.5677 24.122 30.6177C23.056 30.6647 22.717 30.6777 20 30.6777C17.283 30.6777 16.944 30.6677 15.878 30.6177C14.813 30.5677 14.088 30.3997 13.45 30.1527C12.7823 29.9021 12.1775 29.5086 11.678 28.9997C11.1694 28.4999 10.7759 27.8951 10.525 27.2277C10.277 26.5907 10.11 25.8647 10.06 24.7997C10.013 23.7337 10 23.3947 10 20.6777C10 17.9607 10.01 17.6217 10.06 16.5557C10.11 15.4897 10.277 14.7657 10.525 14.1277C10.7752 13.4599 11.1688 12.855 11.678 12.3557C12.1777 11.8469 12.7824 11.4534 13.45 11.2027C14.088 10.9547 14.812 10.7877 15.878 10.7377C16.944 10.6907 17.283 10.6777 20 10.6777ZM20 15.6777C18.6739 15.6777 17.4021 16.2045 16.4645 17.1421C15.5268 18.0798 15 19.3516 15 20.6777C15 22.0038 15.5268 23.2755 16.4645 24.2132C17.4021 25.1509 18.6739 25.6777 20 25.6777C21.3261 25.6777 22.5979 25.1509 23.5355 24.2132C24.4732 23.2755 25 22.0038 25 20.6777C25 19.3516 24.4732 18.0798 23.5355 17.1421C22.5979 16.2045 21.3261 15.6777 20 15.6777ZM26.5 15.4277C26.5 15.0962 26.3683 14.7782 26.1339 14.5438C25.8995 14.3094 25.5815 14.1777 25.25 14.1777C24.9185 14.1777 24.6005 14.3094 24.3661 14.5438C24.1317 14.7782 24 15.0962 24 15.4277C24 15.7592 24.1317 16.0771 24.3661 16.3116C24.6005 16.546 24.9185 16.6777 25.25 16.6777C25.5815 16.6777 25.8995 16.546 26.1339 16.3116C26.3683 16.0771 26.5 15.7592 26.5 15.4277ZM20 17.6777C20.7956 17.6777 21.5587 17.9937 22.1213 18.5564C22.6839 19.119 23 19.882 23 20.6777C23 21.4733 22.6839 22.2364 22.1213 22.799C21.5587 23.3616 20.7956 23.6777 20 23.6777C19.2044 23.6777 18.4413 23.3616 17.8787 22.799C17.3161 22.2364 17 21.4733 17 20.6777C17 19.882 17.3161 19.119 17.8787 18.5564C18.4413 17.9937 19.2044 17.6777 20 17.6777Z" fill="#000091"/>
</svg>
