<svg width="40" height="41" viewBox="0 0 40 41" fill="none" xmlns="http://www.w3.org/2000/svg">
<path d="M26.335 27.0167H23.67V22.8397C23.67 21.8437 23.65 20.5617 22.28 20.5617C20.891 20.5617 20.679 21.6457 20.679 22.7667V27.0167H18.013V18.4277H20.573V19.5977H20.608C20.966 18.9237 21.836 18.2107 23.136 18.2107C25.836 18.2107 26.336 19.9887 26.336 22.3017V27.0167H26.335ZM15.003 17.2527C14.7996 17.2529 14.5981 17.213 14.4101 17.1353C14.2221 17.0575 14.0513 16.9434 13.9075 16.7995C13.7636 16.6556 13.6497 16.4847 13.572 16.2967C13.4944 16.1086 13.4546 15.9071 13.455 15.7037C13.4552 15.3975 13.5462 15.0983 13.7164 14.8438C13.8867 14.5894 14.1286 14.3911 14.4115 14.2741C14.6945 14.1571 15.0057 14.1267 15.306 14.1866C15.6062 14.2465 15.882 14.3941 16.0983 14.6108C16.3147 14.8274 16.4619 15.1033 16.5215 15.4037C16.581 15.704 16.5501 16.0152 16.4328 16.298C16.3154 16.5808 16.1169 16.8224 15.8622 16.9923C15.6075 17.1623 15.3082 17.2529 15.002 17.2527H15.003ZM16.339 27.0167H13.666V18.4277H16.34V27.0167H16.339ZM27.67 11.6777H12.329C11.593 11.6777 11 12.2577 11 12.9747V28.3807C11 29.0977 11.594 29.6777 12.328 29.6777H27.666C28.4 29.6777 29 29.0977 29 28.3807V12.9747C29 12.2577 28.4 11.6777 27.666 11.6777H27.669H27.67Z" fill="#000091"/>
</svg>
