<?xml version="1.0" encoding="UTF-8" standalone="no"?>
<!DOCTYPE svg PUBLIC "-//W3C//DTD SVG 1.1//EN" "http://www.w3.org/Graphics/SVG/1.1/DTD/svg11.dtd">
<svg width="100%" height="100%" viewBox="0 0 800 800" version="1.1" xmlns="http://www.w3.org/2000/svg" xmlns:xlink="http://www.w3.org/1999/xlink" xml:space="preserve" xmlns:serif="http://www.serif.com/" style="fill-rule:evenodd;clip-rule:evenodd;stroke-linejoin:round;stroke-miterlimit:2;">
    <g id="Personnage" transform="matrix(1.83542,0,0,1.83542,-366.523,-165.352)">
        <path d="M561.199,338.698C563.521,343.722 563.351,347.811 562.288,351.026C561.81,352.472 561.112,353.796 560.243,354.995C560.459,355.266 560.65,355.537 560.821,355.804L562.11,358.793L562.432,361.642C562.403,363.398 561.921,365.463 560.967,367.724C559.929,370.184 558.165,373.148 556.829,376.446C555.628,379.409 554.651,382.826 556.9,386.33C561.825,394.004 560.394,402.819 552.137,409.931C543.739,417.165 526.37,422.743 502.671,419.739C490.556,418.203 481.594,418.634 474.499,422.091C463.635,427.384 457.638,439.375 450.621,458.839C445.039,474.325 450.566,487.482 457.29,496.802C464.381,506.63 472.916,512.402 472.916,512.402C476.31,514.68 477.217,519.285 474.939,522.679C472.661,526.073 468.056,526.98 464.662,524.702C464.662,524.702 454.047,517.623 445.278,505.469C436.143,492.807 429.103,474.853 436.687,453.816C445.471,429.449 454.41,415.401 468.011,408.775C477.225,404.286 488.801,403.05 504.533,405.044C522.609,407.335 536.064,404.226 542.47,398.708C544.115,397.291 545.415,395.86 544.434,394.33C539.886,387.245 540.051,380.335 541.966,374.061C542.842,371.191 544.525,367.466 545.826,364.762C543.251,364.58 541.792,364.429 541.15,364.299L539.341,363.728L537.61,362.656L535.613,360.106L534.886,357.086L535.223,354.667L536.473,352.288L537.91,350.886L540.211,349.687C540.992,349.413 542.956,348.991 545.094,348.168C546.208,347.739 547.632,347.38 548.252,346.311C548.359,346.126 548.134,345.923 548.035,345.625C547.799,344.919 547.404,344.16 546.87,343.32L545.697,341.081L544.943,338.44L544.882,335.471L545.666,332.598C546.934,329.682 550.18,326.865 555.05,324.949C558.04,323.773 561.813,322.742 565.173,321.33C566.824,320.636 568.553,320.164 569.216,318.85C569.506,318.276 569.039,317.628 568.617,316.679C567.77,314.777 566.29,312.609 564.128,310.049C546.751,289.471 543.503,268.26 540.695,247.595C538.677,232.741 537.006,218.181 528.304,204.729C509.506,235.486 479.158,269.058 438.684,302.272C428.553,310.586 413.258,318.343 400.666,328.16C390.056,336.433 381.238,346.17 381.838,360.164C383.125,390.178 371.488,421.268 355.286,446.922C339.049,472.631 318.251,492.796 301.893,501.287C291.968,506.439 283.169,507.341 276.96,504.71C271.978,502.599 268.023,498.398 266.114,491.323C263.909,483.154 264.661,469.852 270.595,450.487C271.793,446.579 275.938,444.378 279.846,445.576C283.755,446.773 285.955,450.919 284.758,454.827C281.072,466.853 279.497,476.014 279.765,482.706C279.927,486.771 280.379,489.609 282.352,490.869C283.367,491.517 284.673,491.496 286.139,491.307C288.814,490.963 291.815,489.83 295.069,488.141C309.767,480.511 328.172,462.113 342.762,439.012C357.387,415.856 368.201,387.89 367.039,360.798C366.221,341.709 377.085,327.764 391.559,316.479C404.05,306.74 419.238,299.069 429.287,290.822C472.277,255.543 503.525,219.979 520.871,187.982C522.011,185.88 524.096,184.457 526.469,184.162C528.842,183.867 531.212,184.737 532.831,186.496C549.57,204.681 552.54,224.756 555.373,245.601C557.833,263.707 560.22,282.462 575.445,300.492C584.012,310.637 584.896,318.063 583.414,323.069C581.775,328.607 576.735,332.627 570.336,335.223C567.679,336.301 563.802,337.743 561.199,338.698ZM520.114,264.456C524.297,264.456 527.693,267.852 527.693,272.035C527.693,276.217 524.297,279.613 520.114,279.613C515.932,279.613 512.536,276.217 512.536,272.035C512.536,267.852 515.932,264.456 520.114,264.456Z" style="fill:rgb(20,53,82);"/>
    </g>
    <g id="Bonnet" transform="matrix(1.83542,0,0,1.83542,-366.523,-165.352)">
        <path d="M473.263,149.693C487.118,149.447 503.224,150.417 514.886,154.926C528.557,160.211 536.883,169.735 534.379,185.101C530.459,209.159 516.253,224.195 496.786,234.887C478.922,244.698 456.426,250.727 434.189,257.368C393.801,269.429 353.556,283.02 351.19,333.126C346.68,428.656 272.917,463.029 272.917,463.029C271.135,463.868 269.092,463.962 267.24,463.291C267.24,463.291 259.407,460.728 254.63,451.29C250.783,443.688 248.477,430.649 257.689,409.154C272.835,373.815 277.959,348.431 260.852,281.445C255.31,259.747 264.434,222.674 285.184,186.904C315.905,133.947 371.417,84.17 436.392,90.662C456.673,92.688 469.963,96.265 478.183,100.502C485.264,104.151 489.171,108.528 491.092,112.905C494.55,120.786 491.989,129.724 485.315,138.025C482.025,142.117 477.734,146.092 473.263,149.693ZM442.209,152.621C442.209,152.621 458.079,144.229 469.113,133.737C472.334,130.674 475.156,127.464 476.768,124.202C477.674,122.368 478.281,120.573 477.528,118.857C476.346,116.164 473.098,114.148 467.813,112.056C460.484,109.156 449.823,106.89 434.919,105.401C375.732,99.487 325.98,146.098 297.997,194.337C279.61,226.031 270.293,258.554 275.203,277.78C293.585,349.756 287.578,377.017 271.304,414.989C262.468,435.607 267.036,444.432 270.162,447.702C283.894,439.736 332.909,406.25 336.394,332.427C339.116,274.774 383.479,257.053 429.95,243.175C451.141,236.847 472.632,231.253 489.655,221.903C505.075,213.435 516.655,201.775 519.76,182.719C520.67,177.136 518.18,173.401 514.004,170.884C510.145,168.558 505.165,167.09 499.75,166.094C476.918,161.892 446.783,166.487 446.783,166.487C443.213,167.025 439.777,164.912 438.646,161.484C437.515,158.056 439.02,154.312 442.209,152.621Z" style="fill:rgb(223,58,47);"/>
    </g>
</svg>
