<svg width="40" height="41" viewBox="0 0 40 41" fill="none" xmlns="http://www.w3.org/2000/svg">
<path d="M30.162 14.3337C29.3986 14.6714 28.589 14.8931 27.76 14.9917C28.6337 14.4691 29.2877 13.6467 29.6 12.6777C28.78 13.1657 27.881 13.5077 26.944 13.6927C26.3146 13.0192 25.4804 12.5726 24.5709 12.4222C23.6615 12.2719 22.7279 12.4262 21.9153 12.8611C21.1026 13.2961 20.4564 13.9873 20.0771 14.8275C19.6978 15.6676 19.6067 16.6094 19.818 17.5067C18.1551 17.4233 16.5283 16.9912 15.0433 16.2383C13.5582 15.4855 12.2481 14.4287 11.198 13.1367C10.8263 13.7751 10.6309 14.5009 10.632 15.2397C10.632 16.6897 11.37 17.9707 12.492 18.7207C11.828 18.6998 11.1786 18.5204 10.598 18.1977V18.2497C10.5982 19.2154 10.9324 20.1513 11.5438 20.8987C12.1553 21.6462 13.0065 22.1591 13.953 22.3507C13.3366 22.5177 12.6903 22.5423 12.063 22.4227C12.3299 23.2539 12.85 23.9809 13.5506 24.5018C14.2512 25.0227 15.0971 25.3115 15.97 25.3277C15.1025 26.009 14.1092 26.5126 13.0469 26.8098C11.9846 27.107 10.8741 27.1919 9.77899 27.0597C11.6907 28.2891 13.9161 28.9418 16.189 28.9397C23.882 28.9397 28.089 22.5667 28.089 17.0397C28.089 16.8597 28.084 16.6777 28.076 16.4997C28.8949 15.9078 29.6016 15.1747 30.163 14.3347L30.162 14.3337Z" fill="#000091"/>
</svg>
