<svg width="40" height="41" viewBox="0 0 40 41" fill="none" xmlns="http://www.w3.org/2000/svg">
<path d="M29.543 15.1757C30 16.9577 30 20.6777 30 20.6777C30 20.6777 30 24.3977 29.543 26.1797C29.289 27.1647 28.546 27.9397 27.605 28.2017C25.896 28.6777 20 28.6777 20 28.6777C20 28.6777 14.107 28.6777 12.395 28.2017C11.45 27.9357 10.708 27.1617 10.457 26.1797C10 24.3977 10 20.6777 10 20.6777C10 20.6777 10 16.9577 10.457 15.1757C10.711 14.1907 11.454 13.4157 12.395 13.1537C14.107 12.6777 20 12.6777 20 12.6777C20 12.6777 25.896 12.6777 27.605 13.1537C28.55 13.4197 29.292 14.1937 29.543 15.1757ZM18 24.1777L24 20.6777L18 17.1777V24.1777Z" fill="#000091"/>
</svg>
